<svg xmlns="http://www.w3.org/2000/svg" viewBox="0 0 24 24"><path d="M12.5 15.2l-.2-.2c-.1-.1 0-.2 0-.4V9.7l-.3-.2-2.7.6v.3l.9.2c.1 0 .2.1.3.1 0 .1.1.2.1.3v4c0 .1-.1.2-.2.2-.1.1-.2.1-.4.1l-.6.1v.6h4.1v-.4l-.5-.2c-.2-.1-.4-.1-.5-.2zM10.8 7.7c.2.1.3.1.5.1s.4 0 .5-.1c.2-.1.3-.2.4-.4.1-.2.1-.3.1-.5s0-.4-.1-.5c-.1-.1-.2-.3-.3-.3-.2-.1-.3-.1-.5-.1s-.4 0-.5.1c-.2.1-.3.2-.4.4-.1.2-.1.3-.1.5s0 .4.1.5c.2 0 .3.2.3.3z"/><path d="M12 0C5.4 0 0 5.4 0 12s5.4 12 12 12 12-5.4 12-12S18.6 0 12 0zm0 23C6 23 1 18 1 12S6 1 12 1s11 5 11 11-5 11-11 11z"/></svg>