<svg xmlns="http://www.w3.org/2000/svg" viewBox="0 0 24 24"><path d="M23.6 1.2H.4c-.3 0-.4.1-.4.3V22.3c0 .3.1.4.4.4h23.3c.1 0 .4-.1.4-.4V1.5c-.2-.2-.3-.3-.5-.3zm-.9.7l-8.1 7.3c-.3-.5-.7-1.2-1.6-1.4-1-.3-2.7.1-3.5 1.4L1.2 1.9h21.5zM14.2 12c0 .4-.1 1-.3 1.3l-.3.6c-.4.5-.9.9-1.6.9-.6 0-1.2-.4-1.6-.9-.1-.1-.2-.4-.4-.6-.1-.4-.3-.8-.3-1.3s.1-.9.3-1.3c.1-.2.1-.4.4-.6.4-.6 1-.9 1.6-.9.6 0 1.1.3 1.5.8.1.1.3.4.4.6.2.3.3.8.3 1.4zM.7 2.2l8.4 7.6v.1c-.1.4-.4 1.4-.5 1.6-.5.7-.4 2 .1 2.6.1.1.1.1.1.2L.6 21.6c.1.2.1-19.4.1-19.4zm.4 19.9l8.2-7.3c1 1 1.9 1.3 2.2 1.3.4.1 1.6 0 2.2-.7.2-.3.4-.5.6-.7l8.3 7.4H1.1zm22.2-.4l-8.4-7.5c.6-.7.9-1.4.8-2.1-.1-.9-.4-1.6-.8-2.4l8.4-7.5v19.5z"/><path d="M13.1 10.4c-.3-.4-.8-.6-1.1-.6-.5 0-.9.2-1.2.7-.1.1-.3.3-.3.5-.1.3-.1.6-.1.9 0 .3 0 .7.1.9.1.1.2.4.4.6.3.4.7.7 1.2.7s.9-.2 1.1-.7c.1-.1.2-.4.3-.6.1-.3.1-.6.1-1s-.1-.7-.1-1c-.2 0-.3-.3-.4-.4z"/></svg>