<?xml version="1.0" encoding="utf-8"?>
<!-- Generator: Adobe Illustrator 24.2.1, SVG Export Plug-In . SVG Version: 6.00 Build 0)  -->
<svg version="1.1" id="Layer_1" xmlns="http://www.w3.org/2000/svg" xmlns:xlink="http://www.w3.org/1999/xlink" x="0px" y="0px"
	 viewBox="0 0 24 24" style="enable-background:new 0 0 24 24;" xml:space="preserve">
<path d="M22.4 16.7c-1.3-1.3-2.4-1.8-3.3-1.8-1.1 0-1.7.7-2.4 1.5l-.4.4s-.1.1-.4.1c-1.1 0-3.3-1.5-5.1-3.2-2.5-2.8-3.7-5.3-3.2-5.8l.3-.3c1.8-1.8 2.2-2.8-.5-6.1C6.5.5 5.7 0 4.8 0 3.4 0 2.3 1.2 1.5 2.2c-.2.3-.5.6-.6.7C-.2 4-.2 6.1.9 8.8c1.1 3 3.2 6.1 5.8 8.8C11.1 22 16 24 19.1 24c1.1 0 1.8-.3 2.2-.7.1-.1.3-.3.5-.4.9-.8 2.1-1.8 2.1-3.3-.1-1-.6-1.9-1.5-2.9zM20.9 22c-.1.1-.4.3-.5.5-.1.1-.5.4-1.5.4-2.8 0-7.4-1.8-11.6-5.9-2.5-2.5-4.5-5.5-5.5-8.3-.9-2.8-.7-4.5-.1-5 .2-.3.3-.5.6-.8.8-.9 1.6-1.8 2.5-1.8.5 0 1.1.4 1.7 1.1 2.4 2.8 2.1 3.1.6 4.5 0 .3-.1.4-.3.4-.7.7-.5 1.9.3 3.4.7 1.2 1.7 2.5 2.9 3.7 1.7 1.7 4.2 3.6 5.8 3.6.5 0 .9-.3 1.1-.4l.4-.4c.7-.7 1.1-1.1 1.6-1.1.7 0 1.5.5 2.6 1.6.8.8 1.2 1.5 1.2 2-.1.9-1 1.9-1.8 2.5z"/>
</svg>
