<svg xmlns="http://www.w3.org/2000/svg" viewBox="0 0 24 24"><path d="M9.3 9h4.5c.6 0 1.2.5 1.2 1.2s-.5 1.2-1.2 1.2h-.9c-.2 0-.2.1-.2.2 0 .2.1.2.2.2h.9c.9 0 1.7-.8 1.7-1.8s-.8-1.8-1.7-1.8H9.3l1-1c.1-.1.1-.2 0-.4 0 0-.1-.1-.2-.1s-.2 0-.2.1L8.5 8.6s-.1.1-.1.2 0 .2.1.2l1.4 1.5s.1.1.2.1.2 0 .2-.1c.1-.1.1-.3 0-.4L9.3 9z"/><path d="M23.9 3.3l-2.3-2.1c-.1-.1-.2-.1-.2-.1H2.6c-.1 0-.2 0-.2.1L.1 3.3c-.1 0-.1.1-.1.2v18c0 .1.1.2.2.3l2.3 1.1H21.8l2.3-1.1c.1 0 .2-.2.2-.3v-18c-.3-.1-.3-.2-.4-.2zM.7 3.7l2-1.9h18.6l2 1.9v13.7h-10c-.2-.6-.8-1.1-1.4-1.1-.6 0-1.2.5-1.4 1.1H.7V3.7zm12.1 14c0 .5-.4.9-.9.9s-.9-.4-.9-.9.4-.9.9-.9.9.4.9.9zm10.6 3.7l-2 .9H2.6l-2-.9V18h9.9c.2.6.7 1.1 1.4 1.1s1.2-.5 1.4-1.1h10.1v3.4z"/></svg>