<svg xmlns="http://www.w3.org/2000/svg" viewBox="0 0 24 24"><path d="M20.5 3.8C18.3 1.7 15.2.5 12.1.5 5.5.5.1 5.7.1 11.9c0 2 .6 4 1.6 5.7L0 23.5 6.4 22c1.8.9 3.7 1.4 5.7 1.4C18.7 23.4 24 18.2 24 12c0-3.1-1.2-6-3.5-8.2zm-8.4 17.6c-1.8 0-3.5-.5-5.1-1.3l-.4-.3-3.8.9 1-3.5-.3-.4c-1-1.5-1.5-3.2-1.5-5.1 0-5.3 4.4-9.5 10-9.5 2.7 0 5.2 1 7 2.8s3 4.2 3 6.8c0 5.4-4.5 9.6-9.9 9.6z"/><path d="M17.8 14.1c-.3-.1-1.8-.8-2.2-.8-.3-.1-.5-.1-.7.1-.2.3-.8.8-1 1-.2.2-.4.2-.6.1-.3-.1-1.4-.5-2.6-1.3-.9-.7-1.6-1.6-1.8-1.8s0-.4.2-.6c.2-.1.3-.3.5-.5s.2-.3.3-.5.1-.4 0-.5-.7-1.5-1-2c-.3-.5-.6-.4-.8-.4h-.6c-.2 0-.6.1-.9.4-.2.3-1.1.9-1.1 2.2s1.1 2.6 1.3 2.8c.2.2 2.2 2.9 5.4 4.1.7.3 1.4.5 1.8.6.7.2 1.5.2 2 .1.6-.1 1.8-.6 2.1-1.3s.3-1.2.2-1.3c.1-.1-.2-.2-.5-.4z"/></svg>